<svg width="173" height="33" viewBox="0 0 173 33" fill="none" xmlns="http://www.w3.org/2000/svg">
<path d="M0.863636 6.81818V1.72727H21.0909V6.81818H14.0909V25H7.86364V6.81818H0.863636ZM26.5767 25H19.7585L27.4403 1.72727H36.0767L43.7585 25H36.9403L31.8494 8.13636H31.6676L26.5767 25ZM25.304 15.8182H38.1222V20.5455H25.304V15.8182ZM46 25V1.72727H52.3182V19.9091H61.7273V25H46ZM64.2812 25V1.72727H70.5994V11.1364H70.9176L77.9176 1.72727H85.2812L77.4176 12.0909L85.4631 25H77.9176L72.6903 16.2727L70.5994 19V25H64.2812Z" fill="#FF6C6C"/>
<path d="M99.6403 5.992C99.1496 5.30933 98.5203 4.76533 97.7523 4.36C96.9843 3.93333 96.0563 3.72 94.9683 3.72C94.4136 3.72 93.8483 3.80533 93.2723 3.976C92.6963 4.14667 92.1736 4.41333 91.7043 4.776C91.2349 5.11733 90.8509 5.55467 90.5523 6.088C90.2749 6.62133 90.1363 7.25067 90.1363 7.976C90.1363 8.70133 90.2749 9.29867 90.5523 9.768C90.8296 10.2373 91.1923 10.6427 91.6403 10.984C92.1096 11.304 92.6323 11.5707 93.2083 11.784C93.8056 11.9973 94.4242 12.2107 95.0642 12.424C95.8536 12.68 96.6429 12.9573 97.4323 13.256C98.2429 13.5547 98.9683 13.9493 99.6083 14.44C100.248 14.9093 100.771 15.5173 101.176 16.264C101.582 16.9893 101.784 17.9173 101.784 19.048C101.784 20.1787 101.56 21.16 101.112 21.992C100.686 22.8027 100.12 23.4747 99.4163 24.008C98.7336 24.5413 97.9443 24.936 97.0483 25.192C96.1736 25.448 95.2883 25.576 94.3923 25.576C93.7096 25.576 93.0269 25.5013 92.3443 25.352C91.6616 25.224 91.0109 25.0213 90.3923 24.744C89.7736 24.4667 89.1976 24.1147 88.6643 23.688C88.1309 23.2613 87.6616 22.7707 87.2563 22.216L89.2403 20.744C89.7309 21.5547 90.4136 22.2373 91.2883 22.792C92.1843 23.3253 93.2296 23.592 94.4243 23.592C95.0003 23.592 95.5869 23.5067 96.1843 23.336C96.7816 23.144 97.3149 22.8667 97.7843 22.504C98.2749 22.12 98.6696 21.6613 98.9683 21.128C99.2883 20.5733 99.4483 19.9333 99.4483 19.208C99.4483 18.4187 99.2883 17.768 98.9683 17.256C98.6696 16.7227 98.2643 16.2853 97.7523 15.944C97.2403 15.5813 96.6536 15.2827 95.9923 15.048C95.3309 14.8133 94.6376 14.5787 93.9123 14.344C93.1656 14.1093 92.4296 13.8427 91.7043 13.544C90.9789 13.2453 90.3283 12.8613 89.7523 12.392C89.1763 11.9013 88.7069 11.304 88.3443 10.6C88.0029 9.896 87.8323 9.032 87.8323 8.008C87.8323 6.92 88.0456 5.98133 88.4723 5.192C88.9203 4.40267 89.4963 3.752 90.2003 3.24C90.9043 2.728 91.6829 2.35467 92.5363 2.12C93.3896 1.88533 94.2323 1.768 95.0642 1.768C96.6003 1.768 97.9123 2.04533 99.0003 2.6C100.088 3.13333 100.91 3.77333 101.464 4.52L99.6403 5.992ZM105.575 32.68H103.399V10.024H105.575V12.616H105.671C106.289 11.6347 107.111 10.8987 108.135 10.408C109.18 9.896 110.236 9.64 111.303 9.64C112.476 9.64 113.532 9.84267 114.471 10.248C115.431 10.6533 116.241 11.208 116.903 11.912C117.585 12.616 118.108 13.448 118.471 14.408C118.855 15.368 119.047 16.4027 119.047 17.512C119.047 18.6213 118.855 19.656 118.471 20.616C118.108 21.576 117.585 22.408 116.903 23.112C116.241 23.816 115.431 24.3707 114.471 24.776C113.532 25.1813 112.476 25.384 111.303 25.384C110.236 25.384 109.18 25.1387 108.135 24.648C107.111 24.136 106.289 23.4107 105.671 22.472H105.575V32.68ZM116.743 17.512C116.743 16.68 116.615 15.9013 116.359 15.176C116.103 14.4293 115.729 13.7893 115.239 13.256C114.769 12.7013 114.183 12.264 113.479 11.944C112.775 11.624 111.975 11.464 111.079 11.464C110.247 11.464 109.479 11.624 108.775 11.944C108.071 12.2427 107.463 12.6693 106.951 13.224C106.439 13.7573 106.033 14.3973 105.735 15.144C105.457 15.8693 105.319 16.6587 105.319 17.512C105.319 18.3653 105.457 19.1653 105.735 19.912C106.033 20.6373 106.439 21.2667 106.951 21.8C107.463 22.3333 108.071 22.76 108.775 23.08C109.479 23.3787 110.247 23.528 111.079 23.528C111.975 23.528 112.775 23.3787 113.479 23.08C114.183 22.76 114.769 22.3333 115.239 21.8C115.729 21.2453 116.103 20.6053 116.359 19.88C116.615 19.1333 116.743 18.344 116.743 17.512ZM122.815 12.488C123.221 11.6133 123.893 10.92 124.831 10.408C125.77 9.896 126.773 9.64 127.839 9.64C129.738 9.64 131.157 10.2053 132.095 11.336C133.055 12.4667 133.535 13.96 133.535 15.816V25H131.359V16.712C131.359 15.9227 131.295 15.208 131.167 14.568C131.039 13.928 130.815 13.384 130.495 12.936C130.197 12.4667 129.781 12.104 129.247 11.848C128.735 11.592 128.085 11.464 127.295 11.464C126.719 11.464 126.154 11.5813 125.599 11.816C125.066 12.0507 124.586 12.4133 124.159 12.904C123.733 13.3733 123.391 13.9813 123.135 14.728C122.879 15.4533 122.751 16.3173 122.751 17.32V25H120.575V0.807999H122.751V12.488H122.815ZM147.391 16.36C147.327 14.952 146.869 13.7893 146.015 12.872C145.183 11.9333 143.989 11.464 142.431 11.464C141.706 11.464 141.034 11.6027 140.415 11.88C139.797 12.136 139.253 12.4987 138.783 12.968C138.314 13.416 137.941 13.9387 137.663 14.536C137.386 15.112 137.226 15.72 137.183 16.36H147.391ZM149.599 17.064C149.599 17.2133 149.599 17.3733 149.599 17.544C149.599 17.7147 149.589 17.896 149.567 18.088H137.151C137.173 18.8347 137.322 19.5387 137.599 20.2C137.877 20.8613 138.261 21.4373 138.751 21.928C139.242 22.4187 139.818 22.8133 140.479 23.112C141.141 23.3893 141.855 23.528 142.623 23.528C143.754 23.528 144.725 23.272 145.535 22.76C146.367 22.2267 146.997 21.6187 147.423 20.936L149.055 22.216C148.159 23.3467 147.167 24.1573 146.079 24.648C145.013 25.1387 143.861 25.384 142.623 25.384C141.514 25.384 140.479 25.192 139.519 24.808C138.581 24.4027 137.77 23.848 137.087 23.144C136.405 22.44 135.861 21.608 135.455 20.648C135.071 19.688 134.879 18.6427 134.879 17.512C134.879 16.3813 135.071 15.336 135.455 14.376C135.839 13.416 136.373 12.584 137.055 11.88C137.738 11.176 138.538 10.632 139.455 10.248C140.373 9.84267 141.365 9.64 142.431 9.64C143.605 9.64 144.639 9.84267 145.535 10.248C146.431 10.632 147.178 11.1653 147.775 11.848C148.373 12.5093 148.821 13.288 149.119 14.184C149.439 15.08 149.599 16.04 149.599 17.064ZM151.08 13.32C151.08 12.9147 151.069 12.392 151.048 11.752C151.027 11.112 150.995 10.536 150.952 10.024H153.032C153.075 10.4293 153.107 10.8773 153.128 11.368C153.149 11.8587 153.16 12.264 153.16 12.584H153.224C153.651 11.7093 154.291 11.0053 155.144 10.472C155.997 9.91733 156.957 9.64 158.024 9.64C158.301 9.64 158.547 9.65067 158.76 9.672C158.995 9.69333 159.229 9.736 159.464 9.8L159.176 11.848C159.048 11.8053 158.835 11.7627 158.536 11.72C158.237 11.6773 157.939 11.656 157.64 11.656C157.064 11.656 156.509 11.7627 155.976 11.976C155.443 12.1893 154.973 12.5307 154.568 13C154.184 13.448 153.864 14.0347 153.608 14.76C153.373 15.464 153.256 16.3173 153.256 17.32V25H151.08V13.32ZM170.273 16.36C170.209 14.952 169.75 13.7893 168.897 12.872C168.065 11.9333 166.87 11.464 165.313 11.464C164.587 11.464 163.915 11.6027 163.297 11.88C162.678 12.136 162.134 12.4987 161.665 12.968C161.195 13.416 160.822 13.9387 160.545 14.536C160.267 15.112 160.107 15.72 160.065 16.36H170.273ZM172.481 17.064C172.481 17.2133 172.481 17.3733 172.481 17.544C172.481 17.7147 172.47 17.896 172.449 18.088H160.033C160.054 18.8347 160.203 19.5387 160.481 20.2C160.758 20.8613 161.142 21.4373 161.633 21.928C162.123 22.4187 162.699 22.8133 163.361 23.112C164.022 23.3893 164.737 23.528 165.505 23.528C166.635 23.528 167.606 23.272 168.417 22.76C169.249 22.2267 169.878 21.6187 170.305 20.936L171.937 22.216C171.041 23.3467 170.049 24.1573 168.961 24.648C167.894 25.1387 166.742 25.384 165.505 25.384C164.395 25.384 163.361 25.192 162.401 24.808C161.462 24.4027 160.651 23.848 159.969 23.144C159.286 22.44 158.742 21.608 158.337 20.648C157.953 19.688 157.761 18.6427 157.761 17.512C157.761 16.3813 157.953 15.336 158.337 14.376C158.721 13.416 159.254 12.584 159.937 11.88C160.619 11.176 161.419 10.632 162.337 10.248C163.254 9.84267 164.246 9.64 165.313 9.64C166.486 9.64 167.521 9.84267 168.417 10.248C169.313 10.632 170.059 11.1653 170.657 11.848C171.254 12.5093 171.702 13.288 172.001 14.184C172.321 15.08 172.481 16.04 172.481 17.064Z" fill="black"/>
</svg>
